<?xml version="1.0" encoding="utf-8"?>
<!-- Generator: Adobe Illustrator 18.1.0, SVG Export Plug-In . SVG Version: 6.00 Build 0)  -->
<svg version="1.1" id="Layer_1" xmlns="http://www.w3.org/2000/svg" xmlns:xlink="http://www.w3.org/1999/xlink" x="0px" y="0px"
	 viewBox="0 0 192.1 28.5" enable-background="new 0 0 192.1 28.5" xml:space="preserve">
<path fill="#FFFFFF" d="M11.3,20.5c0,1-0.2,2-0.5,3c-0.3,1-0.8,1.9-1.4,2.6c-0.7,0.8-1.5,1.4-2.5,1.8c-1,0.4-2.1,0.7-3.3,0.7
	c-1.2,0-2-0.2-2.7-0.7c-0.6-0.4-0.9-1-0.9-1.8c0-0.3,0-0.5,0.1-0.7c0.1-0.2,0.2-0.5,0.4-0.7c0.2-0.2,0.4-0.4,0.7-0.5
	c0.3-0.1,0.7-0.2,1.1-0.2c0.8,0,1.4,0.3,1.8,0.9c0.4,0.6,0.9,1.4,1.3,2.6c0.4-0.2,0.7-0.7,0.9-1.4c0.2-0.7,0.3-2.3,0.3-4.7v-9.9
	c0-0.3-0.1-0.6-0.2-0.9C6.2,10.1,6,9.9,5.8,9.8C5.6,9.6,5.3,9.5,4.9,9.4C4.5,9.3,4.2,9.2,3.9,9.2v-1l7.2-0.4L11.3,8V20.5z M11.4,2.6
	c0,0.7-0.3,1.3-0.8,1.9C10,5,9.3,5.3,8.5,5.3c-0.8,0-1.4-0.3-2-0.8C6,4,5.7,3.4,5.7,2.6c0-0.7,0.3-1.3,0.8-1.9C7.1,0.3,7.8,0,8.5,0
	c0.8,0,1.4,0.3,2,0.8C11.1,1.3,11.4,1.9,11.4,2.6z"/>
<path fill="#FFFFFF" d="M30.7,21.9c-0.4,0.2-0.9,0.3-1.5,0.5c-0.6,0.2-1.2,0.2-1.8,0.2c-1.2,0-2-0.2-2.6-0.5
	c-0.6-0.3-0.9-0.8-1.1-1.5h-0.1c-0.3,0.3-0.6,0.6-0.9,0.8c-0.3,0.2-0.6,0.4-1,0.6c-0.4,0.2-0.9,0.4-1.3,0.5c-0.4,0.1-1,0.2-1.7,0.2
	c-1.1,0-2.1-0.3-2.8-1C15,21,14.6,20.1,14.6,19c0-0.6,0.1-1.1,0.3-1.6c0.2-0.4,0.4-0.8,0.7-1.2c0.3-0.3,0.6-0.6,1-0.8
	c0.4-0.2,0.8-0.4,1.2-0.6c0.9-0.3,1.9-0.6,3.1-1c1.2-0.3,2.1-0.6,2.6-0.9v-1.4c0-0.2,0-0.6-0.1-0.9c0-0.4-0.1-0.7-0.2-1
	C23.2,9.5,23,9.2,22.7,9c-0.3-0.2-0.7-0.3-1.1-0.3c-0.4,0-0.8,0.1-1.1,0.2C20.2,9,20,9.1,19.8,9.2c0,0.2,0.1,0.5,0.2,0.9
	c0.1,0.4,0.2,0.8,0.2,1.1c0,0.2,0,0.4-0.1,0.6c-0.1,0.2-0.2,0.4-0.4,0.6c-0.2,0.2-0.5,0.3-0.7,0.4C18.7,13,18.3,13,17.8,13
	c-0.8,0-1.4-0.2-1.8-0.6c-0.4-0.4-0.6-0.9-0.6-1.5c0-0.5,0.2-1,0.6-1.4c0.4-0.4,0.9-0.8,1.6-1.1c0.6-0.3,1.3-0.5,2.1-0.7
	c0.8-0.2,1.5-0.2,2.2-0.2c0.9,0,1.8,0.1,2.5,0.2c0.8,0.1,1.5,0.3,2.1,0.7c0.6,0.3,1.1,0.8,1.4,1.5c0.3,0.6,0.5,1.5,0.5,2.5
	c0,1.1,0,2.4-0.1,3.8c0,1.5-0.1,2.5-0.1,2.9c0,0.4,0.1,0.8,0.2,1c0.1,0.2,0.3,0.4,0.6,0.6c0.2,0.1,0.4,0.1,0.8,0.1c0.3,0,0.7,0,1,0
	V21.9z M23.6,14.4c-0.5,0.2-1.1,0.4-1.6,0.6c-0.5,0.2-1,0.5-1.3,0.7c-0.4,0.3-0.6,0.6-0.8,1c-0.2,0.4-0.3,0.9-0.3,1.5
	c0,0.7,0.2,1.3,0.5,1.6c0.3,0.3,0.8,0.5,1.3,0.5c0.5,0,1-0.1,1.3-0.3c0.3-0.2,0.6-0.5,0.9-0.8L23.6,14.4z"/>
<path fill="#FFFFFF" d="M61.7,22.2h-8.5v-1c0.2,0,0.4-0.1,0.7-0.1c0.2,0,0.4-0.1,0.6-0.1c0.2-0.1,0.3-0.3,0.4-0.5
	c0.1-0.2,0.1-0.5,0.1-0.9v-6.7c0-1-0.2-1.7-0.5-2.2c-0.3-0.5-0.8-0.7-1.5-0.7c-0.4,0-0.8,0.1-1.1,0.2c-0.3,0.1-0.6,0.3-0.9,0.5
	c-0.3,0.2-0.5,0.4-0.6,0.6c-0.2,0.2-0.3,0.4-0.4,0.5v7.7c0,0.3,0,0.6,0.1,0.8c0.1,0.2,0.2,0.4,0.4,0.5c0.2,0.1,0.3,0.2,0.5,0.2
	c0.2,0.1,0.4,0.1,0.6,0.1v1h-8.1v-1c0.2,0,0.4,0,0.7-0.1c0.3,0,0.4-0.1,0.6-0.1c0.2-0.1,0.3-0.3,0.4-0.5c0.1-0.2,0.1-0.5,0.1-0.9
	v-6.7c0-1-0.2-1.7-0.5-2.2c-0.4-0.5-0.8-0.7-1.5-0.7c-0.4,0-0.8,0.1-1.1,0.2c-0.3,0.1-0.6,0.3-0.9,0.5c-0.3,0.2-0.5,0.4-0.6,0.6
	c-0.2,0.2-0.3,0.4-0.4,0.5v7.7c0,0.3,0,0.6,0.1,0.8c0.1,0.2,0.2,0.4,0.5,0.5c0.2,0.1,0.3,0.2,0.5,0.2c0.2,0.1,0.4,0.1,0.6,0.1v1
	h-8.6v-1c0.2,0,0.5,0,0.7-0.1c0.2,0,0.4-0.1,0.6-0.1c0.3-0.1,0.5-0.3,0.6-0.5c0.1-0.2,0.2-0.5,0.2-0.9v-8.3c0-0.3-0.1-0.6-0.2-0.9
	C35,10,34.8,9.8,34.6,9.7c-0.2-0.1-0.4-0.2-0.7-0.3c-0.3-0.1-0.6-0.1-0.9-0.2v-1l6.8-0.4L40.1,8v2h0.1c0.3-0.2,0.6-0.5,1-0.9
	c0.4-0.3,0.7-0.6,1-0.8C42.5,8.1,43,8,43.5,7.8c0.6-0.2,1.2-0.2,1.8-0.2c1.1,0,2,0.2,2.7,0.7c0.7,0.5,1.2,1.1,1.6,1.9h0.1
	c0.3-0.3,0.6-0.6,1-0.9c0.4-0.3,0.8-0.6,1.1-0.8c0.4-0.2,0.8-0.4,1.4-0.6c0.6-0.2,1.2-0.2,1.9-0.2c1.4,0,2.6,0.4,3.3,1.3
	c0.8,0.9,1.2,2.1,1.2,3.6v7c0,0.4,0.1,0.6,0.2,0.9c0.1,0.2,0.3,0.4,0.6,0.5c0.2,0.1,0.3,0.1,0.6,0.2c0.2,0.1,0.5,0.1,0.8,0.1V22.2z"
	/>
<path fill="#FFFFFF" d="M73.7,22.2h-9v-1c0.2,0,0.5,0,0.7-0.1c0.2,0,0.4-0.1,0.6-0.1c0.3-0.1,0.5-0.3,0.6-0.5
	c0.1-0.2,0.2-0.5,0.2-0.9v-8.3c0-0.3-0.1-0.6-0.2-0.9c-0.2-0.3-0.3-0.5-0.6-0.6c-0.2-0.1-0.4-0.2-0.8-0.3c-0.3-0.1-0.7-0.2-1-0.2v-1
	l7-0.4L71.5,8v11.4c0,0.3,0.1,0.6,0.2,0.9c0.1,0.2,0.3,0.4,0.6,0.5c0.2,0.1,0.4,0.2,0.6,0.2c0.2,0.1,0.5,0.1,0.7,0.1V22.2z
	 M71.6,2.6c0,0.7-0.3,1.3-0.8,1.9c-0.6,0.5-1.2,0.8-2,0.8c-0.8,0-1.4-0.3-2-0.8C66.2,4,66,3.4,66,2.6c0-0.7,0.3-1.3,0.8-1.9
	C67.4,0.3,68,0,68.8,0c0.8,0,1.4,0.3,2,0.8C71.3,1.3,71.6,1.9,71.6,2.6z"/>
<path fill="#FFFFFF" d="M89.9,18.7c-0.3,0.5-0.7,1.1-1.2,1.5c-0.5,0.5-1,0.9-1.6,1.2c-0.6,0.4-1.3,0.6-1.9,0.8
	c-0.7,0.2-1.4,0.3-2.3,0.3c-1.4,0-2.6-0.2-3.7-0.6c-1-0.4-1.9-0.9-2.5-1.6c-0.7-0.7-1.2-1.5-1.5-2.4c-0.3-0.9-0.5-1.9-0.5-3
	c0-1,0.2-1.9,0.5-2.8c0.4-0.9,0.9-1.7,1.5-2.4c0.6-0.7,1.5-1.2,2.5-1.6c1-0.4,2.1-0.6,3.3-0.6c1.3,0,2.4,0.2,3.3,0.5
	c0.9,0.3,1.6,0.8,2.1,1.3c0.5,0.5,0.9,1.2,1.2,1.9c0.2,0.7,0.4,1.5,0.4,2.3v0.9h-9.7c0,2,0.4,3.4,1.1,4.5c0.8,1,2,1.5,3.6,1.5
	c0.9,0,1.7-0.2,2.4-0.7c0.7-0.5,1.3-1.1,1.8-1.9L89.9,18.7z M84.4,13.3c0-0.6,0-1.2-0.1-1.8c-0.1-0.6-0.2-1.1-0.3-1.5
	c-0.2-0.4-0.4-0.8-0.7-1c-0.3-0.2-0.6-0.3-1.1-0.3c-0.7,0-1.3,0.4-1.8,1.1c-0.4,0.7-0.7,1.9-0.7,3.5L84.4,13.3z"/>
<path fill="#FFFFFF" d="M108.8,15.2c0,2.1-0.7,3.8-2.2,5.3c-1.5,1.5-3.2,2.2-5.3,2.2c-2.1,0-3.9-0.7-5.3-2.2
	c-1.5-1.5-2.2-3.2-2.2-5.3c0-2.1,0.7-3.8,2.2-5.3c1.5-1.5,3.2-2.2,5.3-2.2c2.1,0,3.9,0.7,5.3,2.2C108.1,11.4,108.8,13.2,108.8,15.2z
	 M107.4,15.2c0-1.7-0.6-3.1-1.8-4.3c-1.2-1.2-2.7-1.8-4.4-1.8c-1.7,0-3.2,0.6-4.4,1.8c-1.2,1.2-1.8,2.6-1.8,4.3
	c0,1.7,0.6,3.1,1.8,4.3c1.2,1.2,2.7,1.8,4.4,1.8c1.7,0,3.2-0.6,4.4-1.8C106.8,18.4,107.4,16.9,107.4,15.2z"/>
<path fill="#FFFFFF" d="M117.6,2v18.8h5.3c0.3,0,0.6,0.1,0.7,0.2c0.1,0.1,0.2,0.3,0.2,0.5c0,0.2-0.1,0.4-0.2,0.5
	c-0.1,0.1-0.4,0.2-0.7,0.2h-11.9c-0.3,0-0.6-0.1-0.7-0.2c-0.1-0.1-0.2-0.3-0.2-0.5c0-0.2,0.1-0.4,0.2-0.5c0.1-0.1,0.4-0.2,0.7-0.2
	h5.3V3.4h-3.9c-0.3,0-0.6-0.1-0.7-0.2c-0.1-0.1-0.2-0.3-0.2-0.5c0-0.2,0.1-0.4,0.2-0.5c0.1-0.1,0.4-0.2,0.7-0.2H117.6z"/>
<path fill="#FFFFFF" d="M133.1,8.3v12.6h5.3c0.3,0,0.6,0.1,0.7,0.2c0.1,0.1,0.2,0.3,0.2,0.5c0,0.2-0.1,0.4-0.2,0.5
	c-0.1,0.1-0.4,0.2-0.7,0.2h-11.9c-0.3,0-0.6-0.1-0.7-0.2c-0.1-0.1-0.2-0.3-0.2-0.5c0-0.2,0.1-0.4,0.2-0.5c0.1-0.1,0.4-0.2,0.7-0.2
	h5.3V9.6h-3.9c-0.3,0-0.6-0.1-0.7-0.2c-0.1-0.1-0.2-0.3-0.2-0.5c0-0.2,0.1-0.4,0.2-0.5c0.1-0.1,0.4-0.2,0.7-0.2H133.1z M133,1.3v3.5
	h-2V1.3H133z"/>
<path fill="#FFFFFF" d="M150.7,22.2h-2.2L143,9.9h-1.3c-0.3,0-0.5-0.1-0.7-0.2c-0.1-0.1-0.2-0.3-0.2-0.5c0-0.2,0.1-0.3,0.2-0.5
	c0.1-0.1,0.4-0.2,0.7-0.2h4.9c0.3,0,0.5,0.1,0.7,0.2c0.1,0.1,0.2,0.3,0.2,0.5c0,0.2-0.1,0.3-0.2,0.5c-0.1,0.1-0.4,0.2-0.7,0.2h-2.2
	l4.8,10.9h0.6l4.7-10.9h-2.2c-0.3,0-0.5-0.1-0.7-0.2c-0.1-0.1-0.2-0.3-0.2-0.5c0-0.2,0.1-0.3,0.2-0.5c0.1-0.1,0.4-0.2,0.7-0.2h5
	c0.3,0,0.6,0.1,0.7,0.2c0.1,0.1,0.2,0.3,0.2,0.5c0,0.2-0.1,0.3-0.2,0.5c-0.1,0.1-0.4,0.2-0.7,0.2H156L150.7,22.2z"/>
<path fill="#FFFFFF" d="M174.5,15.7h-13.4c0.2,1.7,0.9,3.1,2.1,4.1c1.2,1,2.7,1.6,4.4,1.6c1,0,2-0.2,3.1-0.5c1.1-0.3,2-0.8,2.6-1.3
	c0.2-0.2,0.4-0.2,0.5-0.2c0.2,0,0.3,0.1,0.4,0.2c0.1,0.1,0.2,0.3,0.2,0.5c0,0.2-0.1,0.4-0.3,0.5c-0.5,0.5-1.4,1-2.7,1.5
	c-1.3,0.5-2.6,0.7-3.9,0.7c-2.3,0-4.1-0.7-5.7-2.2c-1.5-1.5-2.3-3.3-2.3-5.4c0-1.9,0.7-3.6,2.1-4.9c1.4-1.4,3.2-2.1,5.3-2.1
	c2.2,0,3.9,0.7,5.3,2.1C173.9,11.6,174.6,13.4,174.5,15.7z M173.2,14.4c-0.3-1.5-0.9-2.6-2.1-3.5c-1.1-0.9-2.4-1.4-4-1.4
	c-1.5,0-2.9,0.5-4,1.3c-1.1,0.9-1.8,2.1-2.1,3.6H173.2z"/>
<path fill="#FFFFFF" d="M182.7,8.6v3.3c1.7-1.5,3-2.5,3.8-3c0.9-0.4,1.6-0.7,2.4-0.7c0.8,0,1.5,0.3,2.2,0.8c0.7,0.5,1,0.9,1,1.2
	c0,0.2-0.1,0.4-0.2,0.5c-0.1,0.1-0.3,0.2-0.5,0.2c-0.1,0-0.2,0-0.3-0.1c-0.1,0-0.2-0.2-0.4-0.4c-0.4-0.4-0.7-0.6-1-0.8
	c-0.3-0.1-0.5-0.2-0.8-0.2c-0.6,0-1.3,0.2-2.1,0.7c-0.8,0.5-2.2,1.6-4.2,3.4v7.2h5.8c0.3,0,0.6,0.1,0.7,0.2c0.1,0.1,0.2,0.3,0.2,0.5
	c0,0.2-0.1,0.3-0.2,0.5c-0.1,0.1-0.4,0.2-0.7,0.2h-10.3c-0.3,0-0.5-0.1-0.7-0.2c-0.1-0.1-0.2-0.3-0.2-0.5c0-0.2,0.1-0.3,0.2-0.4
	c0.1-0.1,0.4-0.2,0.7-0.2h3.2v-11H179c-0.3,0-0.5-0.1-0.7-0.2c-0.1-0.1-0.2-0.3-0.2-0.5c0-0.2,0.1-0.3,0.2-0.5
	c0.1-0.1,0.4-0.2,0.7-0.2H182.7z"/>
</svg>
